# Blender 4.2.2 LTS
# www.blender.org
o Sphere
v 0.000000 0.038981 -0.410447
v 0.000000 -0.038981 -0.410447
v 0.157071 0.038981 -0.379203
v 0.382683 0.000000 -0.923880
v 0.157071 -0.038981 -0.379203
v 0.290230 0.038981 -0.290230
v 0.707107 0.000000 -0.707107
v 0.290230 -0.038981 -0.290230
v 0.379203 0.038981 -0.157071
v 0.923880 0.000000 -0.382683
v 0.379203 -0.038981 -0.157071
v -0.379203 0.038981 -0.157071
v -0.923879 0.000000 -0.382684
v -0.379203 -0.038981 -0.157071
v -0.290229 0.038981 -0.290230
v -0.707106 0.000000 -0.707107
v -0.290229 -0.038981 -0.290230
v -0.157071 0.038981 -0.379203
v -0.382683 0.000000 -0.923880
v -0.157071 -0.038981 -0.379203
v 0.000001 0.000000 -1.000000
vn 0.0131 -0.9977 -0.0660
vn 0.0131 0.9977 -0.0660
vn 0.0374 -0.9977 -0.0559
vn 0.0374 0.9977 -0.0559
vn 0.0559 -0.9977 -0.0374
vn 0.0559 0.9977 -0.0374
vn -0.0559 -0.9977 -0.0374
vn -0.0559 0.9977 -0.0374
vn -0.0374 -0.9977 -0.0559
vn -0.0374 0.9977 -0.0559
vn -0.0131 -0.9977 -0.0660
vn -0.0131 0.9977 -0.0660
vt 0.502691 0.005152
vt 0.502691 0.493848
vt 0.666714 0.493848
vt 0.666714 0.005152
vt 0.497309 0.989412
vt 0.497309 0.506666
vt 0.659330 0.506666
vt 0.659330 0.989412
vt 0.830736 0.493848
vt 0.830736 0.005152
vt 0.821350 0.506666
vt 0.821350 0.989412
vt 0.994759 0.493848
vt 0.994759 0.005152
vt 0.983371 0.506666
vt 0.983371 0.989412
vt 0.010624 0.005152
vt 0.010624 0.493848
vt 0.174646 0.493848
vt 0.174646 0.005152
vt 0.011246 0.989412
vt 0.011246 0.506666
vt 0.173267 0.506666
vt 0.173267 0.989412
vt 0.338669 0.493848
vt 0.338669 0.005152
vt 0.335288 0.506666
vt 0.335288 0.989412
s 0
f 2/1/1 21/2/1 4/3/1 5/4/1
f 21/5/2 1/6/2 3/7/2 4/8/2
f 5/4/3 4/3/3 7/9/3 8/10/3
f 4/8/4 3/7/4 6/11/4 7/12/4
f 8/10/5 7/9/5 10/13/5 11/14/5
f 7/12/6 6/11/6 9/15/6 10/16/6
f 14/17/7 13/18/7 16/19/7 17/20/7
f 13/21/8 12/22/8 15/23/8 16/24/8
f 17/20/9 16/19/9 19/25/9 20/26/9
f 16/24/10 15/23/10 18/27/10 19/28/10
f 20/26/11 19/25/11 21/2/11 2/1/11
f 19/28/12 18/27/12 1/6/12 21/5/12
