# Blender 4.2.2 LTS
# www.blender.org
o Sphere
v 0.000000 0.038981 -0.410447
v 0.000000 -0.038981 -0.410447
v 0.157071 0.038981 -0.379203
v 0.382683 0.000000 -0.923880
v 0.157071 -0.038981 -0.379203
v 0.290230 0.038981 -0.290230
v 0.707107 0.000000 -0.707107
v 0.290230 -0.038981 -0.290230
v 0.379203 0.038981 -0.157071
v 0.923880 0.000000 -0.382683
v 0.379203 -0.038981 -0.157071
v 0.410447 0.038981 0.000000
v 1.000000 0.000000 0.000000
v 0.410447 -0.038981 0.000000
v 0.379203 0.038981 0.157071
v 0.923879 0.000000 0.382684
v 0.379203 -0.038981 0.157071
v 0.290230 0.038981 0.290230
v 0.707107 0.000000 0.707107
v 0.290230 -0.038981 0.290230
v 0.157071 0.038981 0.379203
v 0.382683 0.000000 0.923880
v 0.157071 -0.038981 0.379203
v -0.000000 0.038981 0.410447
v -0.000000 0.000000 1.000000
v -0.000000 -0.038981 0.410447
v -0.157071 0.038981 0.379203
v -0.382684 0.000000 0.923879
v -0.157071 -0.038981 0.379203
v -0.290230 0.038981 0.290230
v -0.707107 0.000000 0.707106
v -0.290230 -0.038981 0.290230
v -0.379203 0.038981 0.157071
v -0.923880 0.000000 0.382683
v -0.379203 -0.038981 0.157071
v -0.410447 0.038981 -0.000000
v -1.000000 0.000000 -0.000001
v -0.410447 -0.038981 -0.000000
v -0.379203 0.038981 -0.157071
v -0.923879 0.000000 -0.382684
v -0.379203 -0.038981 -0.157071
v -0.290229 0.038981 -0.290230
v -0.707106 0.000000 -0.707107
v -0.290229 -0.038981 -0.290230
v -0.157071 0.038981 -0.379203
v -0.382683 0.000000 -0.923880
v -0.157071 -0.038981 -0.379203
v 0.000001 0.000000 -1.000000
vn 0.0131 -0.9977 -0.0660
vn 0.0131 0.9977 -0.0660
vn 0.0374 -0.9977 -0.0559
vn 0.0374 0.9977 -0.0559
vn 0.0559 -0.9977 -0.0374
vn 0.0559 0.9977 -0.0374
vn 0.0660 -0.9977 -0.0131
vn 0.0660 0.9977 -0.0131
vn 0.0660 -0.9977 0.0131
vn 0.0660 0.9977 0.0131
vn 0.0559 0.9977 0.0374
vn 0.0559 -0.9977 0.0374
vn 0.0374 0.9977 0.0559
vn 0.0374 -0.9977 0.0559
vn 0.0131 0.9977 0.0660
vn 0.0131 -0.9977 0.0660
vn -0.0131 0.9977 0.0660
vn -0.0131 -0.9977 0.0660
vn -0.0374 0.9977 0.0559
vn -0.0374 -0.9977 0.0559
vn -0.0559 0.9977 0.0374
vn -0.0559 -0.9977 0.0374
vn -0.0660 -0.9977 0.0131
vn -0.0660 0.9977 0.0131
vn -0.0660 -0.9977 -0.0131
vn -0.0660 0.9977 -0.0131
vn -0.0559 -0.9977 -0.0374
vn -0.0559 0.9977 -0.0374
vn -0.0374 -0.9977 -0.0559
vn -0.0374 0.9977 -0.0559
vn -0.0131 -0.9977 -0.0660
vn -0.0131 0.9977 -0.0660
vt 0.750000 0.005152
vt 0.750000 0.997078
vt 0.687500 0.997078
vt 0.687500 0.005152
vt 0.250000 0.996794
vt 0.250000 0.007127
vt 0.312500 0.007127
vt 0.312500 0.996794
vt 0.625000 0.997078
vt 0.625000 0.005152
vt 0.375000 0.007127
vt 0.375000 0.996794
vt 0.562500 0.997078
vt 0.562500 0.005152
vt 0.437500 0.007127
vt 0.437500 0.996794
vt 0.500000 0.997078
vt 0.500000 0.005152
vt 0.500000 0.007127
vt 0.500000 0.996794
vt 0.437500 0.997078
vt 0.437500 0.005152
vt 0.562500 0.007127
vt 0.562500 0.996794
vt 0.625000 0.007127
vt 0.625000 0.996794
vt 0.375000 0.997078
vt 0.375000 0.005152
vt 0.687500 0.007127
vt 0.687500 0.996794
vt 0.312500 0.997078
vt 0.312500 0.005152
vt 0.750000 0.007127
vt 0.750000 0.996795
vt 0.250000 0.997078
vt 0.250000 0.005152
vt 0.812500 0.007127
vt 0.812500 0.996795
vt 0.187500 0.997078
vt 0.187500 0.005152
vt 0.875000 0.007127
vt 0.875000 0.996795
vt 0.125000 0.997078
vt 0.125000 0.005152
vt 0.937500 0.007127
vt 0.937500 0.996795
vt 0.062500 0.997078
vt 0.062500 0.005152
vt 0.000000 0.997078
vt 0.000000 0.005152
vt 1.000000 0.007127
vt 1.000000 0.996795
vt 1.000000 0.005152
vt 1.000000 0.997078
vt 0.937500 0.997078
vt 0.937500 0.005152
vt 0.000000 0.996794
vt 0.000000 0.007127
vt 0.062500 0.007127
vt 0.062500 0.996794
vt 0.875000 0.997078
vt 0.875000 0.005152
vt 0.125000 0.007127
vt 0.125000 0.996794
vt 0.812500 0.997078
vt 0.812500 0.005152
vt 0.187500 0.007127
vt 0.187500 0.996794
s 0
f 2/1/1 48/2/1 4/3/1 5/4/1
f 48/5/2 1/6/2 3/7/2 4/8/2
f 5/4/3 4/3/3 7/9/3 8/10/3
f 4/8/4 3/7/4 6/11/4 7/12/4
f 8/10/5 7/9/5 10/13/5 11/14/5
f 7/12/6 6/11/6 9/15/6 10/16/6
f 11/14/7 10/13/7 13/17/7 14/18/7
f 10/16/8 9/15/8 12/19/8 13/20/8
f 14/18/9 13/17/9 16/21/9 17/22/9
f 13/20/10 12/19/10 15/23/10 16/24/10
f 16/24/11 15/23/11 18/25/11 19/26/11
f 17/22/12 16/21/12 19/27/12 20/28/12
f 19/26/13 18/25/13 21/29/13 22/30/13
f 20/28/14 19/27/14 22/31/14 23/32/14
f 22/30/15 21/29/15 24/33/15 25/34/15
f 23/32/16 22/31/16 25/35/16 26/36/16
f 25/34/17 24/33/17 27/37/17 28/38/17
f 26/36/18 25/35/18 28/39/18 29/40/18
f 28/38/19 27/37/19 30/41/19 31/42/19
f 29/40/20 28/39/20 31/43/20 32/44/20
f 31/42/21 30/41/21 33/45/21 34/46/21
f 32/44/22 31/43/22 34/47/22 35/48/22
f 35/48/23 34/47/23 37/49/23 38/50/23
f 34/46/24 33/45/24 36/51/24 37/52/24
f 38/53/25 37/54/25 40/55/25 41/56/25
f 37/57/26 36/58/26 39/59/26 40/60/26
f 41/56/27 40/55/27 43/61/27 44/62/27
f 40/60/28 39/59/28 42/63/28 43/64/28
f 44/62/29 43/61/29 46/65/29 47/66/29
f 43/64/30 42/63/30 45/67/30 46/68/30
f 47/66/31 46/65/31 48/2/31 2/1/31
f 46/68/32 45/67/32 1/6/32 48/5/32
