# Blender 4.2.2 LTS
# www.blender.org
o BezierCurve
v -0.543329 0.000559 -1.000000
v -0.543329 -0.000559 -1.000000
v -0.409529 -0.054039 -0.865122
v -0.409529 0.054039 -0.865122
v -0.265115 -0.081249 -0.712818
v -0.265115 0.081249 -0.712818
v -0.120571 -0.088497 -0.546581
v -0.120571 0.088497 -0.546581
v 0.013622 -0.088497 -0.369905
v 0.013622 0.088497 -0.369905
v 0.126981 -0.088497 -0.186285
v 0.126981 0.088497 -0.186285
v 0.209025 -0.088497 0.000785
v 0.209025 0.088497 0.000785
v 0.249272 -0.088497 0.187812
v 0.249272 0.088497 0.187812
v 0.237239 -0.088497 0.371301
v 0.237239 0.088497 0.371301
v 0.127010 -0.088497 0.547758
v 0.127010 0.088497 0.547758
v -0.103708 -0.088497 0.713690
v -0.103708 0.088497 0.713690
v -0.406341 -0.088497 0.865602
v -0.406341 0.088497 0.865602
v -0.732313 -0.088497 1.000000
v -0.732313 0.088497 1.000000
v -0.330722 0.000000 -1.000000
v -0.078807 0.000000 -0.865122
v 0.112853 0.000000 -0.712818
v 0.340077 0.000000 -0.546581
v 0.509705 0.000000 -0.369905
v 0.670310 0.000000 -0.186285
v 0.752355 0.000000 0.000785
v 0.792601 0.000000 0.187812
v 0.780569 0.000000 0.371301
v 0.705774 0.000000 0.547758
v 0.557736 0.000000 0.713690
v 0.325972 0.000000 0.865602
v -0.000000 0.000000 1.000000
vn 0.0927 -0.9418 -0.3232
vn 0.0927 0.9418 -0.3232
vn 0.1170 -0.9428 -0.3122
vn 0.1170 0.9428 -0.3122
vn 0.1835 -0.9453 -0.2697
vn 0.1835 0.9453 -0.2697
vn 0.1891 -0.9587 -0.2126
vn 0.1891 0.9587 -0.2126
vn 0.1756 -0.9737 -0.1449
vn 0.1756 0.9737 -0.1449
vn 0.1644 -0.9808 -0.1052
vn 0.1644 0.9808 -0.1052
vn 0.1605 -0.9855 -0.0558
vn 0.1605 0.9855 -0.0558
vn 0.1607 -0.9869 -0.0130
vn 0.1607 0.9869 -0.0130
vn 0.1577 -0.9861 0.0520
vn 0.1577 0.9861 0.0520
vn 0.1442 -0.9801 0.1368
vn 0.1442 0.9801 0.1368
vn 0.1262 -0.9705 0.2054
vn 0.1262 0.9705 0.2054
vn 0.1164 -0.9558 0.2701
vn 0.1164 0.9558 0.2701
vn 0.1152 -0.9532 0.2794
vn 0.1152 0.9532 0.2794
vn 0.2757 -0.0000 -0.9612
vn 0.4944 -0.0000 -0.8693
vn 0.6104 -0.0000 -0.7921
vn 0.7268 -0.0000 -0.6868
vn 0.7893 -0.0000 -0.6140
vn 0.8819 -0.0000 -0.4714
vn 0.9569 -0.0000 -0.2903
vn 0.9977 -0.0000 -0.0675
vn 0.9693 -0.0000 0.2458
vn 0.8203 -0.0000 0.5719
vn 0.6228 -0.0000 0.7824
vn 0.4764 -0.0000 0.8793
vn 0.3812 -0.0000 0.9245
vt 1.000000 0.000000
vt 1.000000 0.083333
vt 0.000000 0.083333
vt 0.000000 0.000000
vt 1.000000 0.166667
vt 0.000000 0.166667
vt 1.000000 0.250000
vt 0.000000 0.250000
vt 1.000000 0.333333
vt 0.000000 0.333333
vt 1.000000 0.416667
vt 0.000000 0.416667
vt 1.000000 0.500000
vt 0.000000 0.500000
vt 1.000000 0.583333
vt 0.000000 0.583333
vt 1.000000 0.666667
vt 0.000000 0.666667
vt 1.000000 0.750000
vt 0.000000 0.750000
vt 1.000000 0.833333
vt 0.000000 0.833333
vt 1.000000 0.916667
vt 0.000000 0.916667
vt 1.000000 1.000000
vt 0.000000 1.000000
vt 0.000000 0.916667
vt 0.000000 0.833333
vt 0.000000 0.416667
vt 0.000000 0.333333
vt 0.000000 0.166667
vt 0.000000 0.083333
vt 0.000000 0.000000
s 1
f 27/1/27 28/2/28 3/3/3 1/4/1
f 28/2/28 29/5/29 5/6/5 3/3/3
f 29/5/29 30/7/30 7/8/7 5/6/5
f 30/7/30 31/9/31 9/10/9 7/8/7
f 31/9/31 32/11/32 11/12/11 9/10/9
f 32/11/32 33/13/33 13/14/13 11/12/11
f 33/13/33 34/15/34 15/16/15 13/14/13
f 34/15/34 35/17/35 17/18/17 15/16/15
f 35/17/35 36/19/36 19/20/19 17/18/17
f 36/19/36 37/21/37 21/22/21 19/20/19
f 37/21/37 38/23/38 23/24/23 21/22/21
f 38/23/38 39/25/39 25/26/25 23/24/23
f 24/27/24 26/26/26 39/25/39 38/23/38
f 22/28/22 24/27/24 38/23/38 37/21/37
f 20/20/20 22/28/22 37/21/37 36/19/36
f 18/18/18 20/20/20 36/19/36 35/17/35
f 16/16/16 18/18/18 35/17/35 34/15/34
f 14/14/14 16/16/16 34/15/34 33/13/33
f 12/29/12 14/14/14 33/13/33 32/11/32
f 10/30/10 12/29/12 32/11/32 31/9/31
f 8/8/8 10/30/10 31/9/31 30/7/30
f 6/31/6 8/8/8 30/7/30 29/5/29
f 4/32/4 6/31/6 29/5/29 28/2/28
f 2/33/2 4/32/4 28/2/28 27/1/27
